<svg width="76" height="76" viewBox="0 0 76 76" fill="none" xmlns="http://www.w3.org/2000/svg">
<circle cx="38" cy="38" r="38" fill="#4D7CE4"/>
<path d="M53.72 49.08V57H21.98V50.7L38.18 35.4C39.9 33.76 41.06 32.36 41.66 31.2C42.26 30 42.56 28.82 42.56 27.66C42.56 25.98 41.98 24.7 40.82 23.82C39.7 22.9 38.04 22.44 35.84 22.44C34 22.44 32.34 22.8 30.86 23.52C29.38 24.2 28.14 25.24 27.14 26.64L20.06 22.08C21.7 19.64 23.96 17.74 26.84 16.38C29.72 14.98 33.02 14.28 36.74 14.28C39.86 14.28 42.58 14.8 44.9 15.84C47.26 16.84 49.08 18.28 50.36 20.16C51.68 22 52.34 24.18 52.34 26.7C52.34 28.98 51.86 31.12 50.9 33.12C49.94 35.12 48.08 37.4 45.32 39.96L35.66 49.08H53.72Z" fill="white"/>
</svg>
