<svg width="24" height="24" viewBox="0 0 24 24" fill="none" xmlns="http://www.w3.org/2000/svg">
<path fill-rule="evenodd" clip-rule="evenodd" d="M12 24C18.6274 24 24 18.6274 24 12C24 5.37258 18.6274 0 12 0C5.37258 0 0 5.37258 0 12C0 18.6274 5.37258 24 12 24Z" fill="#4F8AF4"/>
<path fill-rule="evenodd" clip-rule="evenodd" d="M19.7656 12.5457C19.4457 11.4407 17.8257 8.15532 17.5242 7.56253C17.0072 6.54519 15.7209 7.0171 16.2259 8.10672C16.2521 8.16326 16.3041 8.27691 16.3713 8.42398L16.3715 8.42422C16.6174 8.96204 17.0675 9.94644 17.2089 10.2201C16.8972 10.1375 16.5747 10.096 16.2434 10.096C14.906 10.096 14.0609 10.6779 13.5962 11.1479H10.4038C9.93905 10.6779 9.09385 10.096 7.75643 10.096C7.42551 10.096 7.10277 10.1375 6.79107 10.2201C6.93254 9.94638 7.38279 8.96168 7.62868 8.42392C7.69592 8.27688 7.74787 8.16325 7.77406 8.10672C8.2789 7.0171 6.99294 6.54519 6.47563 7.56253C6.17425 8.15532 4.55433 11.4409 4.23427 12.5457C4.07886 12.964 4 13.4035 4 13.8521C4 15.9235 5.68507 17.6089 7.75626 17.6089C9.19104 17.6089 10.48 16.81 11.12 15.5247C11.2337 15.2967 11.324 15.0571 11.3884 14.8121C11.471 14.4992 11.5129 14.1766 11.5129 13.8521C11.5129 13.6166 11.4468 13.1495 11.4468 13.1495H12.5532C12.5532 13.1495 12.4871 13.6166 12.4871 13.8521C12.4871 14.1764 12.5288 14.4992 12.6116 14.8121C12.6758 15.0571 12.7663 15.2967 12.88 15.5247C13.5198 16.81 14.8086 17.6089 16.2436 17.6089C18.3149 17.6089 20 15.9235 20 13.8521C19.9998 13.4035 19.9211 12.964 19.7656 12.5457ZM9.8577 14.6286C9.53229 15.5058 8.6878 16.0952 7.75643 16.0952C6.5196 16.0952 5.51347 15.0889 5.51347 13.8519C5.51347 13.6374 5.54409 13.4245 5.60497 13.2185C5.62882 13.1603 5.65232 13.0875 5.65979 13.0637C5.98841 12.1934 6.83023 11.609 7.75643 11.609C8.6878 11.609 9.53229 12.1984 9.8577 13.0758C9.95187 13.3293 9.99958 13.5906 9.99958 13.8519C9.99975 14.1136 9.95205 14.3751 9.8577 14.6286ZM14.1423 14.6286C14.4679 15.5057 15.3124 16.0952 16.2436 16.0952C17.4804 16.0952 18.4865 15.0889 18.4867 13.8521C18.4867 13.6376 18.4557 13.4247 18.3952 13.2187C18.3712 13.1603 18.3477 13.0875 18.3402 13.0639C18.0118 12.1935 17.1698 11.6091 16.2436 11.6091C15.3122 11.6091 14.4679 12.1985 14.1423 13.076C14.0481 13.3294 14.0004 13.5908 14.0004 13.8521C14.0004 14.1136 14.0481 14.3751 14.1423 14.6286Z" fill="white"/>
</svg>
