<svg width="105" height="108" viewBox="0 0 105 108" fill="none" xmlns="http://www.w3.org/2000/svg">
<g clip-path="url(#clip0_1605_13820)">
<path fill-rule="evenodd" clip-rule="evenodd" d="M16.6666 75.1667C16.6666 63.6607 25.994 54.3333 37.5 54.3333H62.5C74.0059 54.3333 83.3333 63.6607 83.3333 75.1667C83.3333 82.0702 77.7368 87.6667 70.8333 87.6667H29.1666C22.2631 87.6667 16.6666 82.0702 16.6666 75.1667Z" fill="#4E8AF4"/>
<path d="M50 4.33331C38.494 4.33331 29.1666 13.6607 29.1666 25.1666C29.1666 36.6726 38.494 46 50 46C61.5059 46 70.8333 36.6726 70.8333 25.1666C70.8333 13.6607 61.5059 4.33331 50 4.33331Z" fill="#4E8AF4"/>
<path d="M72.5 57.75C62.1447 57.75 53.75 66.1447 53.75 76.5C53.75 86.8553 62.1447 95.25 72.5 95.25C82.8553 95.25 91.25 86.8553 91.25 76.5C91.25 66.1447 82.8553 57.75 72.5 57.75Z" fill="#BDE3FF"/>
<path fill-rule="evenodd" clip-rule="evenodd" d="M65.5492 69.5492C66.2814 68.8169 67.4686 68.8169 68.2008 69.5492L72.5 73.8483L76.7992 69.5492C77.5314 68.8169 78.7186 68.8169 79.4508 69.5492C80.1831 70.2814 80.1831 71.4686 79.4508 72.2008L75.1516 76.5L79.4508 80.7992C80.1831 81.5314 80.1831 82.7186 79.4508 83.4508C78.7186 84.1831 77.5314 84.1831 76.7992 83.4508L72.5 79.1516L68.2008 83.4508C67.4686 84.1831 66.2814 84.1831 65.5492 83.4508C64.8169 82.7186 64.8169 81.5314 65.5492 80.7992L69.8483 76.5L65.5492 72.2008C64.8169 71.4686 64.8169 70.2814 65.5492 69.5492Z" fill="#4E8AF4"/>
</g>
<defs>
<clipPath id="clip0_1605_13820">
<rect width="105" height="108" fill="white"/>
</clipPath>
</defs>
</svg>
