<svg width="124" height="112" viewBox="0 0 124 112" fill="none" xmlns="http://www.w3.org/2000/svg">
<path fill-rule="evenodd" clip-rule="evenodd" d="M68.6305 16C69.794 15.9983 70.9101 16.459 71.7313 17.2799L83.6039 29.1047H99.3316C101.754 29.1047 103.718 31.0605 103.718 33.473L103.717 58.3717H94.9457L94.9458 37.8412H81.7881C80.6246 37.8429 79.5085 37.3822 78.6873 36.5613L66.8148 24.7365H52.9028L41.0302 36.5613C40.21 37.3826 39.096 37.8412 37.9294 37.8412H24.7718V85.8919L63.8055 85.8917V94.6283L20.3859 94.6284C18.0242 94.6284 16.0985 92.7692 16.0037 90.4402L16 90.2601V33.473C16 31.0605 17.9636 29.1047 20.3859 29.1047H36.1136L47.9862 17.2799C48.8074 16.459 49.9235 15.9983 51.087 16H68.6305ZM59.8588 42.2095C69.3673 42.2095 77.4023 50.2121 77.4023 59.6824C77.4023 69.1528 69.3673 77.1554 59.8588 77.1554C50.3502 77.1554 42.3153 69.1528 42.3153 59.6824C42.3153 50.2121 50.3502 42.2095 59.8588 42.2095ZM59.8588 50.9459C55.1878 50.9459 51.087 55.0303 51.087 59.6824C51.087 64.3346 55.1878 68.4189 59.8588 68.4189C64.5297 68.4189 68.6305 64.3346 68.6305 59.6824C68.6305 55.0303 64.5297 50.9459 59.8588 50.9459Z" fill="#4F8AF4"/>
<path fill-rule="evenodd" clip-rule="evenodd" d="M81.7886 83.6464L76.1176 77.9983L69.916 84.175L81.7886 95.9998L106.819 71.0702L100.617 64.8936L81.7886 83.6464Z" fill="#4F8AF4"/>
</svg>
