<svg width="24" height="24" viewBox="0 0 24 24" fill="none" xmlns="http://www.w3.org/2000/svg">
<path fill-rule="evenodd" clip-rule="evenodd" d="M12 24C18.6274 24 24 18.6274 24 12C24 5.37258 18.6274 0 12 0C5.37258 0 0 5.37258 0 12C0 18.6274 5.37258 24 12 24Z" fill="#4F8AF4"/>
<path fill-rule="evenodd" clip-rule="evenodd" d="M17.3989 12C17.3989 12.238 17.3773 12.462 17.3485 12.686L18.8669 13.841C19.0037 13.946 19.0396 14.135 18.9533 14.289L17.514 16.711C17.4277 16.865 17.2405 16.928 17.075 16.865L15.2831 16.165C14.9089 16.438 14.5059 16.676 14.0669 16.851L13.7935 18.706C13.7719 18.874 13.6208 19 13.4409 19H10.5623C10.3824 19 10.2313 18.874 10.2097 18.706L9.93623 16.851C9.49725 16.676 9.09425 16.445 8.72004 16.165L6.92815 16.865C6.76983 16.921 6.57552 16.865 6.48917 16.711L5.04989 14.289C4.96354 14.135 4.99952 13.946 5.13625 13.841L6.65468 12.686C6.6259 12.462 6.60431 12.231 6.60431 12C6.60431 11.769 6.6259 11.538 6.65468 11.314L5.13625 10.159C4.99952 10.054 4.95634 9.865 5.04989 9.711L6.48917 7.289C6.57552 7.135 6.76263 7.072 6.92815 7.135L8.72004 7.835C9.09425 7.562 9.49725 7.324 9.93623 7.149L10.2097 5.294C10.2313 5.126 10.3824 5 10.5623 5H13.4409C13.6208 5 13.7719 5.126 13.7935 5.294L14.0669 7.149C14.5059 7.324 14.9089 7.555 15.2831 7.835L17.075 7.135C17.2334 7.079 17.4277 7.135 17.514 7.289L18.9533 9.711C19.0396 9.865 19.0037 10.054 18.8669 10.159L17.3485 11.314C17.3773 11.538 17.3989 11.762 17.3989 12ZM9.49773 11.825C9.49773 13.176 10.6276 14.275 12.0165 14.275C13.4054 14.275 14.5352 13.176 14.5352 11.825C14.5352 10.474 13.4054 9.375 12.0165 9.375C10.6276 9.375 9.49773 10.474 9.49773 11.825Z" fill="white"/>
</svg>
