<svg width="24" height="24" viewBox="0 0 24 24" fill="none" xmlns="http://www.w3.org/2000/svg">
<path fill-rule="evenodd" clip-rule="evenodd" d="M12 24C18.6274 24 24 18.6274 24 12C24 5.37258 18.6274 0 12 0C5.37258 0 0 5.37258 0 12C0 18.6274 5.37258 24 12 24Z" fill="#4F8AF4"/>
<path fill-rule="evenodd" clip-rule="evenodd" d="M12 4C7.584 4 4 7.584 4 12C4 16.416 7.584 20 12 20C16.416 20 20 16.416 20 12C20 7.584 16.416 4 12 4ZM8.6 12.8C8.6 12.248 9.048 11.8 9.6 11.8C10.152 11.8 10.6 12.248 10.6 12.8C10.6 13.352 10.152 13.8 9.6 13.8C9.048 13.8 8.6 13.352 8.6 12.8ZM13.4 12.8C13.4 12.248 13.848 11.8 14.4 11.8C14.952 11.8 15.4 12.248 15.4 12.8C15.4 13.352 14.952 13.8 14.4 13.8C13.848 13.8 13.4 13.352 13.4 12.8ZM5.6 12C5.6 15.528 8.472 18.4 12 18.4C15.528 18.4 18.4 15.528 18.4 12C18.4 11.368 18.304 10.76 18.136 10.192C17.56 10.328 16.96 10.4 16.336 10.4C13.64 10.4 11.256 9.064 9.808 7.016C9.024 8.928 7.528 10.472 5.64 11.312C5.616 11.536 5.6 11.768 5.6 12Z" fill="white"/>
</svg>
