<svg width="56" height="56" viewBox="0 0 56 56" fill="none" xmlns="http://www.w3.org/2000/svg">
<path fill-rule="evenodd" clip-rule="evenodd" d="M36.4761 0C42.098 0 44.9083 0 47.9346 0.956667C51.2386 2.15927 53.8407 4.7614 55.0433 8.0654C56 11.0913 56 13.9025 56 19.5239V36.4761C56 42.098 56 44.9083 55.0433 47.9346C53.8407 51.2386 51.2386 53.8407 47.9346 55.0429C44.9083 56 42.098 56 36.4761 56H19.5239C13.902 56 11.0913 56 8.0654 55.0429C4.7614 53.8407 2.15927 51.2386 0.956667 47.9346C0 44.9083 0 42.098 0 36.4761V19.5239C0 13.9025 0 11.0913 0.956667 8.0654C2.15927 4.7614 4.7614 2.15927 8.0654 0.956667C11.0913 0 13.902 0 19.5239 0H36.4761Z" fill="#4F8AF4"/>
<path fill-rule="evenodd" clip-rule="evenodd" d="M38 19H18C16.95 19 16 19.95 16 21V35C16 36.05 16.95 37 18 37H38C39.05 37 40 36.05 40 35V21C40 19.95 39.05 19 38 19ZM30 23V22H38V23H30ZM30 24V25H37.5H38V24H30ZM30 27V26H37V27H30ZM24 29.91C22 29.91 18 31 18 33V34H30V33C30 31 26 29.91 24 29.91ZM21 25C21 23.3431 22.3431 22 24 22C25.6569 22 27 23.3431 27 25C27 26.6569 25.6569 28 24 28C22.3431 28 21 26.6569 21 25Z" fill="#F7F9FA"/>
</svg>
