<svg width="56" height="56" viewBox="0 0 56 56" fill="none" xmlns="http://www.w3.org/2000/svg">
<path fill-rule="evenodd" clip-rule="evenodd" d="M36.4761 0C42.098 0 44.9083 0 47.9346 0.956667C51.2386 2.15927 53.8407 4.7614 55.0433 8.0654C56 11.0913 56 13.9025 56 19.5239V36.4761C56 42.098 56 44.9083 55.0433 47.9346C53.8407 51.2386 51.2386 53.8407 47.9346 55.0429C44.9083 56 42.098 56 36.4761 56H19.5239C13.902 56 11.0913 56 8.0654 55.0429C4.7614 53.8407 2.15927 51.2386 0.956667 47.9346C0 44.9083 0 42.098 0 36.4761V19.5239C0 13.9025 0 11.0913 0.956667 8.0654C2.15927 4.7614 4.7614 2.15927 8.0654 0.956667C11.0913 0 13.902 0 19.5239 0H36.4761Z" fill="#4F8AF4"/>
<path fill-rule="evenodd" clip-rule="evenodd" d="M28.25 16.5C21.7707 16.5 16.5 21.7717 16.5 28.25C16.5 34.7283 21.7707 40 28.25 40C34.7293 40 40 34.7283 40 28.25C40 21.7717 34.7293 16.5 28.25 16.5ZM18.4783 28.25C18.4783 22.862 22.862 18.4783 28.25 18.4783C33.638 18.4783 38.0217 22.862 38.0217 28.25C38.0217 33.638 33.638 38.0217 28.25 38.0217C22.862 38.0217 18.4783 33.638 18.4783 28.25Z" fill="#F7F9FA"/>
<path fill-rule="evenodd" clip-rule="evenodd" d="M28.2503 17.9783C25.3341 17.9783 22.8699 22.6837 22.8699 28.25C22.8699 33.8163 25.3341 38.5217 28.2503 38.5217C31.1665 38.5217 33.6307 33.8163 33.6307 28.25C33.6307 22.6837 31.1665 17.9783 28.2503 17.9783ZM28.2503 39.5C24.6845 39.5 21.8916 34.5598 21.8916 28.25C21.8916 21.9402 24.6845 17 28.2503 17C31.8161 17 34.609 21.9402 34.609 28.25C34.609 34.5598 31.8161 39.5 28.2503 39.5Z" fill="#F7F9FA"/>
<path d="M28.2503 17.4783C26.5072 17.4783 25.032 18.8695 24.0236 20.7948C22.9997 22.7496 22.3699 25.3996 22.3699 28.25H23.3699C23.3699 25.5341 23.9722 23.0482 24.9094 21.2588C25.8622 19.4398 27.0772 18.4783 28.2503 18.4783V17.4783ZM22.3699 28.25C22.3699 31.1004 22.9997 33.7504 24.0236 35.7052C25.032 37.6305 26.5072 39.0217 28.2503 39.0217V38.0217C27.0772 38.0217 25.8622 37.0602 24.9094 35.2412C23.9722 33.4518 23.3699 30.9659 23.3699 28.25H22.3699ZM28.2503 39.0217C29.9934 39.0217 31.4686 37.6305 32.477 35.7052C33.5009 33.7504 34.1307 31.1004 34.1307 28.25H33.1307C33.1307 30.9659 32.5284 33.4518 31.5912 35.2412C30.6384 37.0602 29.4234 38.0217 28.2503 38.0217V39.0217ZM34.1307 28.25C34.1307 25.3996 33.5009 22.7496 32.477 20.7948C31.4686 18.8695 29.9934 17.4783 28.2503 17.4783V18.4783C29.4234 18.4783 30.6384 19.4398 31.5912 21.2588C32.5284 23.0482 33.1307 25.5341 33.1307 28.25H34.1307ZM28.2503 39C26.7221 39 25.2683 37.9398 24.1691 35.9951C23.076 34.0614 22.3916 31.3377 22.3916 28.25H21.3916C21.3916 31.4721 22.1037 34.3734 23.2985 36.4872C24.4872 38.5901 26.2127 40 28.2503 40V39ZM22.3916 28.25C22.3916 25.1623 23.076 22.4386 24.1691 20.5049C25.2683 18.5602 26.7221 17.5 28.2503 17.5V16.5C26.2127 16.5 24.4872 17.9099 23.2985 20.0128C22.1037 22.1266 21.3916 25.0279 21.3916 28.25H22.3916ZM28.2503 17.5C29.7785 17.5 31.2323 18.5602 32.3315 20.5049C33.4246 22.4386 34.109 25.1623 34.109 28.25H35.109C35.109 25.0279 34.3969 22.1266 33.2021 20.0128C32.0134 17.9099 30.2879 16.5 28.2503 16.5V17.5ZM34.109 28.25C34.109 31.3377 33.4246 34.0614 32.3315 35.9951C31.2323 37.9398 29.7785 39 28.2503 39V40C30.2879 40 32.0134 38.5901 33.2021 36.4872C34.3969 34.3734 35.109 31.4721 35.109 28.25H34.109Z" fill="#F7F9FA"/>
<path fill-rule="evenodd" clip-rule="evenodd" d="M37.4737 25H18.5263C18.2358 25 18 24.56 18 24C18 23.46 18.2358 23 18.5263 23H37.4737C37.7642 23 38 23.46 38 24C38 24.56 37.7642 25 37.4737 25Z" fill="#F7F9FA"/>
<path fill-rule="evenodd" clip-rule="evenodd" d="M28 39C27.724 39 27.5 38.7896 27.5 38.5217V17.4783C27.5 17.22 27.724 17 28 17C28.276 17 28.5 17.22 28.5 17.4783V38.5217C28.5 38.7896 28.276 39 28 39Z" fill="#F7F9FA"/>
<path d="M28 39C27.724 39 27.5 38.7896 27.5 38.5217V17.4783C27.5 17.22 27.724 17 28 17C28.276 17 28.5 17.22 28.5 17.4783V38.5217C28.5 38.7896 28.276 39 28 39" stroke="#F7F9FA"/>
<path fill-rule="evenodd" clip-rule="evenodd" d="M39.0217 30H17.9783C17.7143 30 17.5 29.56 17.5 29C17.5 28.46 17.7143 28 17.9783 28H39.0217C39.2857 28 39.5 28.46 39.5 29C39.5 29.56 39.2857 30 39.0217 30Z" fill="#F7F9FA"/>
<path fill-rule="evenodd" clip-rule="evenodd" d="M37 35H19C18.724 35 18.5 34.56 18.5 34C18.5 33.46 18.724 33 19 33H37C37.276 33 37.5 33.46 37.5 34C37.5 34.56 37.276 35 37 35Z" fill="#F7F9FA"/>
</svg>
