<svg width="56" height="56" viewBox="0 0 56 56" fill="none" xmlns="http://www.w3.org/2000/svg">
<path fill-rule="evenodd" clip-rule="evenodd" d="M36.4761 0C42.098 0 44.9083 0 47.9346 0.956667C51.2386 2.15927 53.8407 4.7614 55.0433 8.0654C56 11.0913 56 13.9025 56 19.5239V36.4761C56 42.098 56 44.9083 55.0433 47.9346C53.8407 51.2386 51.2386 53.8407 47.9346 55.0429C44.9083 56 42.098 56 36.4761 56H19.5239C13.902 56 11.0913 56 8.0654 55.0429C4.7614 53.8407 2.15927 51.2386 0.956667 47.9346C0 44.9083 0 42.098 0 36.4761V19.5239C0 13.9025 0 11.0913 0.956667 8.0654C2.15927 4.7614 4.7614 2.15927 8.0654 0.956667C11.0913 0 13.902 0 19.5239 0H36.4761Z" fill="#4F8AF4"/>
<path fill-rule="evenodd" clip-rule="evenodd" d="M18 19H38C39.05 19 40 19.95 40 21V35C40 36.05 39.05 37 38 37H18C16.95 37 16 36.05 16 35V21C16 19.95 16.95 19 18 19ZM29 28.23C29 28.23 23.7077 22.5643 23.4437 22.2661C23.1797 21.9679 22.9549 21.852 22.539 22.284C22.0438 22.7991 17 28.23 17 28.23H18.8268V33.4305C18.8268 33.7453 19.0837 34 19.3999 34H21.6207V30.5829H24.4507V34H26.6716C26.9884 34 27.2447 33.746 27.2447 33.4305V28.23H29ZM30 23V22H38V23H30ZM30 24V25H37.5H38V24H30ZM30 27V26H37V27H30Z" fill="#F7F9FA"/>
</svg>
