<svg width="24" height="24" viewBox="0 0 24 24" fill="none" xmlns="http://www.w3.org/2000/svg">
<path fill-rule="evenodd" clip-rule="evenodd" d="M12 24C18.6274 24 24 18.6274 24 12C24 5.37258 18.6274 0 12 0C5.37258 0 0 5.37258 0 12C0 18.6274 5.37258 24 12 24Z" fill="#4F8AF4"/>
<path fill-rule="evenodd" clip-rule="evenodd" d="M12 8.3913C9.832 8.3913 8 10.1437 8 12.2174C8 14.2911 9.832 16.0435 12 16.0435C14.168 16.0435 16 14.2911 16 12.2174C16 10.1437 14.168 8.3913 12 8.3913ZM12 14.6087C10.6687 14.6087 9.5 13.4908 9.5 12.2174C9.5 10.944 10.6687 9.82609 12 9.82609C13.3313 9.82609 14.5 10.944 14.5 12.2174C14.5 13.4908 13.3313 14.6087 12 14.6087ZM5.66667 17H18.3333C18.7015 17 19 16.7145 19 16.3623V8.07093C19 7.71875 18.7015 7.43325 18.3333 7.43325H15.0106C15.0106 7.43325 12.9115 5.99975 12.7346 6H11.2687C11.0918 5.99975 8.99269 7.43325 8.99269 7.43325H5.66667C5.29848 7.43325 5 7.71875 5 8.07093V16.3623C5 16.7145 5.29848 17 5.66667 17Z" fill="white"/>
</svg>
